<?xml version="1.0" encoding="UTF-8" standalone="no"?>
<!-- Uploaded to: SVG Repo, www.svgrepo.com, Transformed by: SVG Repo Mixer Tools -->

<svg
   fill="#ffffff"
   height="800px"
   width="800px"
   version="1.1"
   id="Layer_1"
   viewBox="0 0 511.999 511.999"
   xml:space="preserve"
   stroke="#ffffff"
   sodipodi:docname="saxophone.svg"
   inkscape:version="1.4.2 (f4327f4, 2025-05-13)"
   xmlns:inkscape="http://www.inkscape.org/namespaces/inkscape"
   xmlns:sodipodi="http://sodipodi.sourceforge.net/DTD/sodipodi-0.dtd"
   xmlns="http://www.w3.org/2000/svg"
   xmlns:svg="http://www.w3.org/2000/svg"><defs
   id="defs8" /><sodipodi:namedview
   id="namedview8"
   pagecolor="#ffffff"
   bordercolor="#000000"
   borderopacity="0.25"
   inkscape:showpageshadow="2"
   inkscape:pageopacity="0.0"
   inkscape:pagecheckerboard="0"
   inkscape:deskcolor="#d1d1d1"
   inkscape:zoom="0.68324193"
   inkscape:cx="324.18971"
   inkscape:cy="369.56163"
   inkscape:window-width="1920"
   inkscape:window-height="991"
   inkscape:window-x="-9"
   inkscape:window-y="1341"
   inkscape:window-maximized="1"
   inkscape:current-layer="g2" />

<g
   id="SVGRepo_bgCarrier"
   stroke-width="0" />

<g
   id="SVGRepo_tracerCarrier"
   stroke-linecap="round"
   stroke-linejoin="round" />

<g
   id="SVGRepo_iconCarrier"
   style="stroke-width:1.00031805;stroke-dasharray:none;fill:#241c1c"
   transform="rotate(-90,255.99774,256.0005)"> <g
   id="g2"
   style="stroke-width:1.00031805;stroke-dasharray:none;fill:#241c1c"> <g
   id="g1"
   style="fill:#ffffff;stroke-width:1.00032;stroke-dasharray:none"
   transform="matrix(0.83093488,0.43183194,-0.43183194,0.83093488,148.10893,-81.742493)"> <path
   d="m 442.435,18.296 c -24.393,-24.395 -64.09,-24.396 -88.485,0 l -2.677,2.677 -9.716,-9.715 c -3.445,-3.446 -9.031,-3.445 -12.474,0 -3.445,3.445 -3.445,9.031 0,12.474 l 15.953,15.952 12.733,12.733 c 10.389,10.389 27.294,10.39 37.684,0 0.982,-0.983 2.29,-1.524 3.679,-1.524 1.39,0 2.697,0.541 3.68,1.524 1.401,1.401 1.554,3.036 1.521,3.885 -0.033,0.849 -0.314,2.466 -1.82,3.753 L 274.507,169.422 261.794,156.709 c -3.445,-3.445 -9.031,-3.445 -12.474,0 -3.445,3.445 -3.445,9.03 0,12.474 l 11.733,11.733 -14.884,12.717 -5.911,-5.911 0.853,-0.853 c 3.445,-3.445 3.445,-9.03 0,-12.474 -3.445,-3.445 -9.03,-3.445 -12.474,0 l -15.29,15.29 c -3.445,3.445 -3.445,9.03 0,12.474 1.722,1.722 3.98,2.584 6.237,2.584 2.257,0 4.515,-0.861 6.237,-2.584 l 1.963,-1.963 4.932,4.932 -145.005,123.891 c -26.941,23.017 -40.216,57.728 -35.512,92.849 4.705,35.121 26.646,65.114 58.694,80.231 14.157,6.678 29.256,9.901 44.22,9.9 29.8,0 59.068,-12.784 79.282,-36.512 l 2.951,-3.464 c 18.103,-21.253 47.214,-30.032 73.881,-22.748 2.572,10.891 12.351,19.03 24.016,19.03 h 2.028 c 13.619,0 24.699,-11.079 24.699,-24.698 V 298.941 c 0,-13.619 -11.079,-24.699 -24.699,-24.699 h -2.028 c -11.616,0 -21.358,8.071 -23.981,18.891 -50.793,15.375 -95.967,44.529 -130.939,84.586 -3.161,3.621 -6.271,7.372 -9.241,11.149 -0.887,1.128 -2.071,1.35 -2.697,1.382 -0.652,0.031 -1.908,-0.074 -2.964,-1.168 -1.433,-1.483 -1.413,-3.875 0.046,-5.334 l 172.667,-172.667 13.469,13.469 c 1.722,1.722 3.98,2.584 6.237,2.584 2.257,0 4.515,-0.861 6.237,-2.584 3.445,-3.445 3.445,-9.031 0,-12.474 l -13.469,-13.469 10.985,-10.985 8.414,8.414 -0.864,0.864 c -3.445,3.445 -3.445,9.031 0,12.474 1.722,1.722 3.98,2.584 6.237,2.584 2.257,0 4.515,-0.861 6.237,-2.584 l 15.29,-15.29 c 3.445,-3.445 3.445,-9.031 0,-12.474 -3.445,-3.445 -9.03,-3.445 -12.474,0 l -1.95,1.95 -8.414,-8.414 68.365,-68.365 c 24.397,-24.395 24.397,-64.089 10e-4,-88.485 z M 328.189,298.941 c 0,-3.891 3.165,-7.057 7.057,-7.057 h 2.028 c 3.891,0 7.057,3.165 7.057,7.057 v 144.665 c 0,3.891 -3.165,7.056 -7.057,7.056 h -2.028 c -3.891,0 -7.057,-3.165 -7.057,-7.056 z m 33.406,-136.267 -5.962,-5.962 c -3.444,-3.445 -9.029,-3.445 -12.474,0 -3.445,3.445 -3.445,9.031 0,12.474 l 5.962,5.962 -10.985,10.985 -5.962,-5.962 c -3.445,-3.445 -9.031,-3.445 -12.474,0 -3.445,3.445 -3.445,9.031 0,12.474 l 5.962,5.962 -172.668,172.668 c -8.22,8.22 -8.335,21.708 -0.258,30.068 4.315,4.465 10.335,6.844 16.548,6.528 6.156,-0.314 11.866,-3.264 15.666,-8.094 2.785,-3.541 5.7,-7.058 8.665,-10.452 31.443,-36.016 71.683,-62.636 116.931,-77.472 v 119.124 c -31.685,-6.571 -65.298,4.565 -86.629,29.607 l -2.951,3.464 C 195.753,493.646 153.585,502.732 118.421,486.146 91.811,473.594 73.592,448.69 69.686,419.529 65.78,390.368 76.803,361.547 99.172,342.435 l 146.055,-124.787 9.722,9.722 c 1.722,1.722 3.98,2.584 6.237,2.584 2.257,0 4.515,-0.861 6.237,-2.584 3.445,-3.445 3.445,-9.03 0,-12.474 l -8.742,-8.742 14.884,-12.718 7.659,7.659 c 1.722,1.722 3.98,2.584 6.237,2.584 2.257,0 4.515,-0.861 6.237,-2.584 3.445,-3.445 3.445,-9.03 0,-12.474 l -6.679,-6.679 126.952,-108.47 c 4.828,-4.125 7.74,-10.129 7.988,-16.474 0.249,-6.346 -2.183,-12.56 -6.673,-17.052 -4.315,-4.315 -10.053,-6.691 -16.156,-6.691 -6.103,0 -11.84,2.377 -16.154,6.691 -1.701,1.701 -3.961,2.637 -6.367,2.637 -2.406,0 -4.666,-0.936 -6.367,-2.637 l -6.495,-6.496 2.677,-2.677 c 17.518,-17.516 46.018,-17.518 63.536,0 8.485,8.486 13.159,19.768 13.159,31.768 0,12 -4.674,23.282 -13.159,31.768 z"
   id="path1"
   style="fill:#ffffff;stroke-width:1.00032;stroke-dasharray:none" /> </g> </g> <g
   id="g4"
   style="fill:#ffffff;stroke-width:1.00032;stroke-dasharray:none"
   transform="matrix(0.83093488,0.43183194,-0.43183194,0.83093488,148.10893,-81.742493)"> <g
   id="g3"
   style="fill:#ffffff;stroke-width:1.00032;stroke-dasharray:none"> <circle
   cx="191.242"
   cy="298.543"
   r="8.7889996"
   id="circle2"
   style="fill:#ffffff;stroke-width:1.00032;stroke-dasharray:none" /> </g> </g> <g
   id="g6"
   style="fill:#ffffff;stroke-width:1.00032;stroke-dasharray:none"
   transform="matrix(0.83093488,0.43183194,-0.43183194,0.83093488,148.10893,-81.742493)"> <g
   id="g5"
   style="fill:#ffffff;stroke-width:1.00032;stroke-dasharray:none"> <circle
   cx="212.41299"
   cy="277.431"
   r="8.7889996"
   id="circle4"
   style="fill:#ffffff;stroke-width:1.00032;stroke-dasharray:none" /> </g> </g> <g
   id="g8"
   style="fill:#ffffff;stroke-width:1.00032;stroke-dasharray:none"
   transform="matrix(0.83093488,0.43183194,-0.43183194,0.83093488,148.10893,-81.742493)"> <g
   id="g7"
   style="fill:#ffffff;stroke-width:1.00032;stroke-dasharray:none"> <circle
   cx="234.925"
   cy="254.908"
   r="8.7889996"
   id="circle6"
   style="fill:#ffffff;stroke-width:1.00032;stroke-dasharray:none" /> </g> </g> </g>

</svg>
